<svg width="74" height="85" viewBox="0 0 74 85" fill="none" xmlns="http://www.w3.org/2000/svg">
<path d="M37 0C31.3926 0 26.0148 2.23883 22.0497 6.22398C18.0847 10.2091 15.8571 15.6141 15.8571 21.25C15.8571 26.8859 18.0847 32.2909 22.0497 36.276C26.0148 40.2612 31.3926 42.5 37 42.5C42.6074 42.5 47.9852 40.2612 51.9503 36.276C55.9153 32.2909 58.1429 26.8859 58.1429 21.25C58.1429 15.6141 55.9153 10.2091 51.9503 6.22398C47.9852 2.23883 42.6074 0 37 0ZM21.1429 21.25C21.1429 17.0231 22.8135 12.9693 25.7873 9.98049C28.7611 6.99163 32.7944 5.3125 37 5.3125C41.2056 5.3125 45.2389 6.99163 48.2127 9.98049C51.1865 12.9693 52.8571 17.0231 52.8571 21.25C52.8571 25.4769 51.1865 29.5307 48.2127 32.5195C45.2389 35.5084 41.2056 37.1875 37 37.1875C32.7944 37.1875 28.7611 35.5084 25.7873 32.5195C22.8135 29.5307 21.1429 25.4769 21.1429 21.25ZM10.619 47.8125C9.22694 47.8069 7.84747 48.0776 6.5597 48.6089C5.27193 49.1403 4.10121 49.922 3.11466 50.9091C2.1281 51.8962 1.34513 53.0694 0.810651 54.3612C0.276167 55.6531 0.000684563 57.0384 0 58.4375C0 67.4209 4.403 74.1944 11.285 78.6091C18.0613 82.9494 27.195 85 37 85C46.805 85 55.9387 82.9494 62.715 78.6091C69.597 74.1997 74 67.4156 74 58.4375C74 55.6196 72.8862 52.9171 70.9037 50.9245C68.9212 48.9319 66.2323 47.8125 63.4286 47.8125H10.619ZM5.28571 58.4375C5.28571 55.4997 7.65371 53.125 10.619 53.125H63.4286C64.8304 53.125 66.1749 53.6847 67.1661 54.681C68.1574 55.6773 68.7143 57.0285 68.7143 58.4375C68.7143 65.3916 65.4266 70.5713 59.8713 74.1253C54.2156 77.7538 46.1707 79.6875 37 79.6875C27.8293 79.6875 19.7844 77.7538 14.1287 74.1253C8.57871 70.5659 5.28571 65.3969 5.28571 58.4375Z" fill="#CC8F25"/>
</svg>
