<svg width="101" height="47" viewBox="0 0 101 47" fill="none" xmlns="http://www.w3.org/2000/svg">
<path fill-rule="evenodd" clip-rule="evenodd" d="M77.5242 0.714355C75.8673 0.714355 74.5242 2.0575 74.5242 3.71436C74.5242 5.37121 75.8673 6.71436 77.5242 6.71436H90.4243L57.3812 39.7574L32.6454 15.0216C31.4739 13.85 29.5744 13.85 28.4028 15.0216L1.54567 41.8787C0.374099 43.0503 0.374099 44.9498 1.54567 46.1214C2.71724 47.2929 4.61674 47.2929 5.78831 46.1214L30.5241 21.3856L55.2599 46.1214C56.4315 47.2929 58.331 47.2929 59.5026 46.1214L94.667 10.9569V23.8572C94.667 25.514 96.0102 26.8572 97.667 26.8572C99.3239 26.8572 100.667 25.514 100.667 23.8572V3.71436C100.667 3.26869 100.57 2.84572 100.396 2.46548C100.278 2.20844 100.122 1.96459 99.928 1.74252C99.8413 1.64316 99.7481 1.54957 99.6492 1.46239C99.4086 1.25025 99.1422 1.08323 98.8609 0.961337C98.4951 0.802446 98.0913 0.714355 97.667 0.714355H97.6669H77.5242Z" fill="#CC8F25"/>
</svg>
