<svg width="82" height="81" viewBox="0 0 82 81" fill="none" xmlns="http://www.w3.org/2000/svg">
<path d="M79 73.2381V32.7619C79 32.0226 78.8283 31.2935 78.4985 30.6323C78.1687 29.9711 77.6899 29.3959 77.1 28.9524L43.85 3.95238C43.0278 3.33418 42.0278 3 41 3C39.9722 3 38.9722 3.33418 38.15 3.95238L4.9 28.9524C4.31007 29.3959 3.83125 29.9711 3.50147 30.6323C3.17169 31.2935 3 32.0226 3 32.7619V73.2381C3 74.501 3.50045 75.7122 4.39124 76.6053C5.28204 77.4983 6.49022 78 7.75 78H26.75C28.0098 78 29.218 77.4983 30.1088 76.6053C30.9996 75.7122 31.5 74.501 31.5 73.2381V58.9524C31.5 57.6894 32.0004 56.4782 32.8912 55.5852C33.782 54.6922 34.9902 54.1905 36.25 54.1905H45.75C47.0098 54.1905 48.218 54.6922 49.1088 55.5852C49.9996 56.4782 50.5 57.6894 50.5 58.9524V73.2381C50.5 74.501 51.0004 75.7122 51.8912 76.6053C52.782 77.4983 53.9902 78 55.25 78H74.25C75.5098 78 76.718 77.4983 77.6088 76.6053C78.4996 75.7122 79 74.501 79 73.2381Z" stroke="#CC8F25" stroke-width="6" stroke-linecap="round" stroke-linejoin="round"/>
</svg>
